<mxfile host="app.diagrams.net" modified="2024-06-06T07:40:13.679Z" agent="Mozilla/5.0 (Windows NT 10.0; Win64; x64) AppleWebKit/537.36 (KHTML, like Gecko) Chrome/125.0.0.0 Safari/537.36" etag="0gVpuKewHnPCId4ah4Lw" version="24.4.14" type="github">
  <diagram name="第 1 页" id="KDsxGl1fq4lFFDoglSv8">
    <mxGraphModel dx="1863" dy="1724" grid="1" gridSize="10" guides="1" tooltips="1" connect="1" arrows="1" fold="1" page="1" pageScale="1" pageWidth="827" pageHeight="1169" math="0" shadow="0">
      <root>
        <mxCell id="0" />
        <mxCell id="1" parent="0" />
        <mxCell id="9zO-XzP03Kmli_csOhuw-1" value="批量检入" style="rounded=0;whiteSpace=wrap;html=1;" vertex="1" parent="1">
          <mxGeometry x="-300" y="70" width="120" height="60" as="geometry" />
        </mxCell>
        <mxCell id="9zO-XzP03Kmli_csOhuw-2" value="XStream是由ThoughtWorks创建的一个用于序列化和反序列化Java对象的库，它可以将Java对象转换为XML或JSON格式，并从XML或JSON中还原Java对象。XStream的设计目标是简洁和易用，适用于各种Java应用程序的对象序列化需求。" style="rounded=0;whiteSpace=wrap;html=1;align=left;" vertex="1" parent="1">
          <mxGeometry x="520" y="-10" width="340" height="200" as="geometry" />
        </mxCell>
        <mxCell id="9zO-XzP03Kmli_csOhuw-5" value="" style="edgeStyle=orthogonalEdgeStyle;rounded=0;orthogonalLoop=1;jettySize=auto;html=1;" edge="1" parent="1" source="9zO-XzP03Kmli_csOhuw-3" target="9zO-XzP03Kmli_csOhuw-4">
          <mxGeometry relative="1" as="geometry" />
        </mxCell>
        <mxCell id="9zO-XzP03Kmli_csOhuw-7" value="" style="edgeStyle=orthogonalEdgeStyle;rounded=0;orthogonalLoop=1;jettySize=auto;html=1;exitX=0.5;exitY=1;exitDx=0;exitDy=0;entryX=0.5;entryY=0;entryDx=0;entryDy=0;" edge="1" parent="1" source="9zO-XzP03Kmli_csOhuw-6" target="9zO-XzP03Kmli_csOhuw-3">
          <mxGeometry relative="1" as="geometry">
            <mxPoint x="-40" y="220" as="targetPoint" />
          </mxGeometry>
        </mxCell>
        <mxCell id="9zO-XzP03Kmli_csOhuw-3" value="解码xml文件" style="rounded=0;whiteSpace=wrap;html=1;" vertex="1" parent="1">
          <mxGeometry x="-20" y="250" width="120" height="60" as="geometry" />
        </mxCell>
        <mxCell id="9zO-XzP03Kmli_csOhuw-9" value="" style="edgeStyle=orthogonalEdgeStyle;rounded=0;orthogonalLoop=1;jettySize=auto;html=1;" edge="1" parent="1" source="9zO-XzP03Kmli_csOhuw-4" target="9zO-XzP03Kmli_csOhuw-8">
          <mxGeometry relative="1" as="geometry" />
        </mxCell>
        <mxCell id="9zO-XzP03Kmli_csOhuw-4" value="CAD实例" style="whiteSpace=wrap;html=1;rounded=0;" vertex="1" parent="1">
          <mxGeometry x="-20" y="390" width="120" height="60" as="geometry" />
        </mxCell>
        <mxCell id="9zO-XzP03Kmli_csOhuw-6" value="请求体&lt;span style=&quot;font-family: &amp;quot;JetBrains Mono&amp;quot;, monospace; font-size: 9.8pt; background-color: rgb(30, 31, 34); color: rgb(188, 190, 196);&quot;&gt;TsDto&lt;/span&gt;" style="whiteSpace=wrap;html=1;rounded=0;" vertex="1" parent="1">
          <mxGeometry x="-20" y="110" width="120" height="60" as="geometry" />
        </mxCell>
        <mxCell id="9zO-XzP03Kmli_csOhuw-8" value="校验参数" style="whiteSpace=wrap;html=1;rounded=0;" vertex="1" parent="1">
          <mxGeometry x="-20" y="530" width="120" height="60" as="geometry" />
        </mxCell>
      </root>
    </mxGraphModel>
  </diagram>
</mxfile>
